<svg width="106" height="28" viewBox="0 0 106 28" fill="none" xmlns="http://www.w3.org/2000/svg">
<path opacity="0.5" d="M105 19.7047C88.1108 3.56005 39.0409 -7.91814 0.609982 26.9192" stroke="#212A34" stroke-dasharray="4 4"/>
<path fill-rule="evenodd" clip-rule="evenodd" d="M56.8707 4.0537C56.8478 4.39099 56.6819 4.67204 56.356 4.8699C55.2051 5.56856 54.0568 6.27114 52.9079 6.97277C52.6688 7.11876 52.4296 7.26466 52.1931 7.41447C51.9764 7.55172 51.7587 7.58983 51.5373 7.43082C51.3381 7.28774 51.2834 7.08397 51.3753 6.7939C51.6117 6.04692 51.8463 5.29931 52.0956 4.55629C52.2165 4.19596 52.2226 3.85175 52.0988 3.48846C51.8486 2.75382 51.624 2.01103 51.3866 1.27225C51.3096 1.03241 51.2967 0.806277 51.5196 0.62782C51.7146 0.471676 51.9315 0.473543 52.2169 0.6469C53.6003 1.48718 54.9823 2.32988 56.3626 3.17494C56.6823 3.37061 56.8597 3.65335 56.8707 4.0537Z" fill="#11B2A8"/>
</svg>
