<svg width="155" height="46" viewBox="0 0 155 46" fill="none" xmlns="http://www.w3.org/2000/svg">
<g clip-path="url(#clip0_0_1353)">
<path d="M149.259 0H5.74074C2.57022 0 0 2.57436 0 5.75V40.25C0 43.4256 2.57022 46 5.74074 46H149.259C152.43 46 155 43.4256 155 40.25V5.75C155 2.57436 152.43 0 149.259 0Z" fill="black"/>
<path d="M149.259 0.92C150.538 0.92 151.765 1.42887 152.669 2.33467C153.573 3.24047 154.081 4.469 154.081 5.75V40.25C154.081 41.531 153.573 42.7595 152.669 43.6653C151.765 44.5711 150.538 45.08 149.259 45.08H5.74074C4.46181 45.08 3.23526 44.5711 2.33091 43.6653C1.42657 42.7595 0.918519 41.531 0.918519 40.25V5.75C0.918519 4.469 1.42657 3.24047 2.33091 2.33467C3.23526 1.42887 4.46181 0.92 5.74074 0.92H149.259ZM149.259 0H5.74074C4.2182 0 2.75802 0.605802 1.68142 1.68414C0.604826 2.76247 0 4.22501 0 5.75V40.25C0 41.775 0.604826 43.2375 1.68142 44.3159C2.75802 45.3942 4.2182 46 5.74074 46H149.259C150.782 46 152.242 45.3942 153.319 44.3159C154.395 43.2375 155 41.775 155 40.25V5.75C155 4.22501 154.395 2.76247 153.319 1.68414C152.242 0.605802 150.782 0 149.259 0Z" fill="#A6A6A6"/>
<path d="M54.4452 11.776C54.464 12.1977 54.3975 12.6189 54.2495 13.0142C54.1015 13.4095 53.8751 13.7707 53.5841 14.076C53.2579 14.4133 52.8643 14.6778 52.429 14.8522C51.9937 15.0266 51.5266 15.1069 51.0581 15.088C50.587 15.0985 50.1187 15.0121 49.6823 14.8341C49.2458 14.656 48.8505 14.3902 48.5207 14.053C47.8517 13.3676 47.4771 12.4471 47.4771 11.4885C47.4771 10.5299 47.8517 9.60943 48.5207 8.924C49.0322 8.42338 49.68 8.08534 50.3828 7.95235C51.0855 7.81935 51.8118 7.89734 52.4704 8.1765C52.8844 8.34696 53.2537 8.6106 53.5496 8.947L52.9411 9.5565C52.7131 9.28138 52.4242 9.0633 52.0973 8.91957C51.7705 8.77584 51.4147 8.71042 51.0581 8.7285C50.6081 8.73161 50.1657 8.8451 49.7695 9.05902C49.3734 9.27295 49.0355 9.58081 48.7856 9.95569C48.5357 10.3306 48.3812 10.7611 48.3357 11.2095C48.2903 11.658 48.3552 12.1108 48.5247 12.5284C48.6943 12.946 48.9634 13.3156 49.3086 13.6049C49.6537 13.8942 50.0643 14.0945 50.5045 14.1882C50.9448 14.2819 51.4012 14.2661 51.834 14.1423C52.2667 14.0185 52.6626 13.7904 52.987 13.478C53.3377 13.0929 53.5411 12.5959 53.5611 12.075H51.0581V11.247H54.3993C54.4254 11.4222 54.4407 11.5989 54.4452 11.776Z" fill="white" stroke="white" stroke-width="0.411304" stroke-miterlimit="10"/>
<path d="M59.7037 8.9008H56.6037V11.0858H59.4281V11.9138H56.6037V14.0988H59.7037V14.9498H55.7081V8.0498H59.7037V8.9008Z" fill="white" stroke="white" stroke-width="0.411304" stroke-miterlimit="10"/>
<path d="M63.4696 14.9498H62.5856V8.9008H60.6567V8.0498H65.4445V8.9008H63.4696V14.9498Z" fill="white" stroke="white" stroke-width="0.411304" stroke-miterlimit="10"/>
<path d="M68.82 14.9498V8.0498H69.7041V14.9498H68.82Z" fill="white" stroke="white" stroke-width="0.411304" stroke-miterlimit="10"/>
<path d="M73.6307 14.9498H72.7467V8.9008H70.8178V8.0498H75.5481V8.9008H73.6307V14.9498Z" fill="white" stroke="white" stroke-width="0.411304" stroke-miterlimit="10"/>
<path d="M84.5152 14.0528C84.1836 14.3852 83.7898 14.6489 83.3564 14.8289C82.923 15.0088 82.4584 15.1014 81.9893 15.1014C81.5201 15.1014 81.0555 15.0088 80.6221 14.8289C80.1887 14.6489 79.7949 14.3852 79.4633 14.0528C78.8143 13.3617 78.4529 12.4486 78.4529 11.4998C78.4529 10.551 78.8143 9.63792 79.4633 8.94682C79.7878 8.60504 80.1803 8.33529 80.6154 8.15502C81.0505 7.97475 81.5186 7.88798 81.9893 7.90032C82.4593 7.89288 82.9259 7.98188 83.3603 8.16186C83.7947 8.34183 84.1877 8.60897 84.5152 8.94682C84.8453 9.28319 85.1048 9.6824 85.2784 10.1209C85.4519 10.5594 85.536 11.0283 85.5256 11.4998C85.5406 11.972 85.4587 12.4422 85.2849 12.8814C85.1111 13.3205 84.8491 13.7192 84.5152 14.0528ZM80.1178 13.4778C80.3624 13.7261 80.6538 13.9232 80.975 14.0577C81.2963 14.1923 81.641 14.2616 81.9893 14.2616C82.3375 14.2616 82.6822 14.1923 83.0035 14.0577C83.3248 13.9232 83.6162 13.7261 83.8607 13.4778C84.3562 12.9386 84.6311 12.2326 84.6311 11.4998C84.6311 10.767 84.3562 10.061 83.8607 9.52182C83.6162 9.27356 83.3248 9.07644 83.0035 8.9419C82.6822 8.80735 82.3375 8.73807 81.9893 8.73807C81.641 8.73807 81.2963 8.80735 80.975 8.9419C80.6538 9.07644 80.3624 9.27356 80.1178 9.52182C79.6224 10.061 79.3474 10.767 79.3474 11.4998C79.3474 12.2326 79.6224 12.9386 80.1178 13.4778Z" fill="white" stroke="white" stroke-width="0.411304" stroke-miterlimit="10"/>
<path d="M86.7771 14.9498V8.0498H87.8448L91.1974 13.4203V12.0863V8.0498H92.0815V14.9498H91.163L87.6611 9.32631V10.6488V14.9498H86.7771Z" fill="white" stroke="white" stroke-width="0.411304" stroke-miterlimit="10"/>
<path d="M78.2348 25.0126C77.2675 25.0148 76.3225 25.3044 75.5194 25.8446C74.7163 26.3848 74.0912 27.1514 73.7231 28.0474C73.355 28.9435 73.2605 29.9287 73.4514 30.8786C73.6424 31.8284 74.1103 32.7003 74.7959 33.3838C75.4815 34.0673 76.3541 34.5318 77.3034 34.7186C78.2526 34.9054 79.2358 34.8061 80.1287 34.4332C81.0215 34.0603 81.7839 33.4306 82.3195 32.6237C82.855 31.8168 83.1397 30.869 83.1374 29.9001C83.1468 29.2537 83.0262 28.612 82.7828 28.0133C82.5395 27.4146 82.1783 26.871 81.7209 26.415C81.2635 25.959 80.7191 25.5998 80.1202 25.3589C79.5213 25.1179 78.8801 25.0001 78.2348 25.0126ZM78.2348 32.8671C77.6419 32.9086 77.0502 32.7705 76.5367 32.4708C76.0231 32.171 75.6115 31.7234 75.3553 31.1863C75.0991 30.6491 75.0101 30.0471 75.1 29.4586C75.1899 28.8701 75.4544 28.3223 75.8593 27.8865C76.2641 27.4506 76.7905 27.1467 77.37 27.0145C77.9495 26.8822 78.5554 26.9276 79.1088 27.1448C79.6622 27.3619 80.1376 27.7408 80.4731 28.2322C80.8087 28.7236 80.9889 29.3047 80.9904 29.9001C81.0089 30.2773 80.9518 30.6544 80.8224 31.0091C80.6931 31.3639 80.4942 31.6891 80.2374 31.9657C79.9805 32.2422 79.671 32.4644 79.3271 32.6192C78.9832 32.774 78.6118 32.8583 78.2348 32.8671ZM67.5341 25.0126C66.5667 25.0148 65.6217 25.3044 64.8187 25.8446C64.0156 26.3848 63.3905 27.1514 63.0224 28.0474C62.6543 28.9435 62.5598 29.9287 62.7507 30.8786C62.9417 31.8284 63.4095 32.7003 64.0952 33.3838C64.7808 34.0673 65.6534 34.5318 66.6026 34.7186C67.5519 34.9054 68.5351 34.8061 69.4279 34.4332C70.3208 34.0603 71.0832 33.4306 71.6188 32.6237C72.1543 31.8168 72.4389 30.869 72.4367 29.9001C72.446 29.2537 72.3254 28.612 72.0821 28.0133C71.8387 27.4146 71.4776 26.871 71.0202 26.415C70.5627 25.959 70.0183 25.5998 69.4194 25.3589C68.8205 25.1179 68.1794 25.0001 67.5341 25.0126ZM67.5341 32.8671C66.9412 32.9086 66.3495 32.7705 65.8359 32.4708C65.3224 32.171 64.9108 31.7234 64.6545 31.1863C64.3983 30.6491 64.3094 30.0471 64.3993 29.4586C64.4891 28.8701 64.7537 28.3223 65.1585 27.8865C65.5634 27.4506 66.0897 27.1467 66.6693 27.0145C67.2488 26.8822 67.8546 26.9276 68.408 27.1448C68.9614 27.3619 69.4368 27.7408 69.7724 28.2322C70.108 28.7236 70.2882 29.3047 70.2896 29.9001C70.3081 30.2773 70.251 30.6544 70.1217 31.0091C69.9924 31.3639 69.7934 31.6891 69.5366 31.9657C69.2798 32.2422 68.9703 32.4644 68.6264 32.6192C68.2824 32.774 67.911 32.8583 67.5341 32.8671ZM54.8126 26.5191V28.5891H59.7726C59.6948 29.564 59.2902 30.484 58.6245 31.1996C58.1269 31.7073 57.5285 32.1048 56.8679 32.3663C56.2073 32.6277 55.4993 32.7474 54.7896 32.7176C53.328 32.7176 51.9262 32.136 50.8927 31.1008C49.8592 30.0656 49.2785 28.6616 49.2785 27.1976C49.2785 25.7336 49.8592 24.3295 50.8927 23.2943C51.9262 22.2591 53.328 21.6776 54.7896 21.6776C56.1909 21.6567 57.5439 22.1897 58.5556 23.1611L60.0137 21.7006C59.3294 21.0226 58.5169 20.4883 57.6238 20.1289C56.7307 19.7695 55.775 19.5923 54.8126 19.6076C53.7919 19.5678 52.7737 19.7348 51.8189 20.0986C50.8642 20.4624 49.9926 21.0155 49.2564 21.7247C48.5202 22.434 47.9345 23.2848 47.5345 24.2262C47.1344 25.1676 46.9282 26.1802 46.9282 27.2033C46.9282 28.2264 47.1344 29.239 47.5345 30.1804C47.9345 31.1218 48.5202 31.9726 49.2564 32.6819C49.9926 33.3912 50.8642 33.9442 51.8189 34.308C52.7737 34.6718 53.7919 34.8388 54.8126 34.7991C55.7948 34.8383 56.7741 34.6691 57.6863 34.3024C58.5985 33.9358 59.423 33.38 60.1056 32.6716C61.3113 31.3449 61.9537 29.6001 61.8967 27.8071C61.9008 27.3755 61.8662 26.9444 61.7933 26.5191H54.8126ZM106.835 28.1291C106.536 27.2467 105.976 26.4763 105.23 25.9197C104.483 25.3632 103.586 25.0469 102.656 25.0126C102.028 25.0113 101.406 25.1391 100.829 25.3881C100.253 25.637 99.7331 26.0018 99.3026 26.4599C98.8722 26.9179 98.5401 27.4596 98.327 28.0513C98.1138 28.643 98.0241 29.2722 98.0633 29.9001C98.0535 30.9498 98.383 31.9746 99.0027 32.8214C99.6223 33.6681 100.499 34.2913 101.501 34.598C102.504 34.9046 103.578 34.8782 104.564 34.5227C105.551 34.1672 106.396 33.5017 106.973 32.6256L105.308 31.4756C105.06 31.8899 104.708 32.232 104.287 32.468C103.866 32.7041 103.391 32.8258 102.909 32.8211C102.411 32.8416 101.919 32.711 101.497 32.4462C101.074 32.1814 100.742 31.795 100.543 31.3376L107.076 28.6351L106.835 28.1291ZM100.176 29.7621C100.153 29.4048 100.201 29.0466 100.317 28.7082C100.434 28.3699 100.617 28.0582 100.856 27.7916C101.094 27.5249 101.383 27.3086 101.706 27.1552C102.029 27.0019 102.379 26.9146 102.736 26.8986C103.106 26.8759 103.475 26.9632 103.795 27.1493C104.116 27.3355 104.375 27.6123 104.539 27.9451L100.176 29.7621ZM94.8715 34.5001H97.0185V20.1251H94.8715V34.5001ZM91.3582 26.1051H91.2778C90.957 25.7392 90.5612 25.447 90.1173 25.2486C89.6735 25.0501 89.192 24.95 88.7059 24.9551C87.4512 25.016 86.268 25.5581 85.4015 26.4691C84.535 27.3801 84.0517 28.5901 84.0517 29.8483C84.0517 31.1065 84.535 32.3165 85.4015 33.2275C86.268 34.1385 87.4512 34.6806 88.7059 34.7416C89.1927 34.7513 89.6756 34.6533 90.1202 34.4545C90.5648 34.2557 90.9601 33.9611 91.2778 33.5916H91.3582V34.2931C91.3582 36.1676 90.3593 37.1681 88.7519 37.1681C88.2149 37.1562 87.6936 36.9849 87.254 36.6757C86.8145 36.3665 86.4767 35.9335 86.2833 35.4316L84.4233 36.2021C84.7672 37.0671 85.3651 37.8073 86.138 38.3248C86.9109 38.8422 87.8223 39.1126 88.7519 39.1001C91.2663 39.1001 93.3445 37.6166 93.3445 34.0056V25.3001H91.3582V26.1051ZM88.8896 32.8671C88.1374 32.8201 87.4313 32.4876 86.9152 31.9375C86.3991 31.3873 86.1117 30.6607 86.1117 29.9058C86.1117 29.1509 86.3991 28.4243 86.9152 27.8741C87.4313 27.324 88.1374 26.9915 88.8896 26.9446C89.2573 26.9605 89.618 27.0503 89.9504 27.2086C90.2827 27.367 90.5798 27.5907 90.824 27.8665C91.0683 28.1422 91.2546 28.4644 91.372 28.8137C91.4894 29.1631 91.5355 29.5325 91.5074 29.9001C91.5387 30.2689 91.4951 30.6402 91.379 30.9916C91.263 31.343 91.077 31.6672 90.8323 31.9445C90.5876 32.2219 90.2892 32.4466 89.9553 32.6052C89.6214 32.7638 89.2589 32.8528 88.8896 32.8671ZM116.893 20.1251H111.749V34.5001H113.896V29.0491H116.893C117.505 29.0931 118.119 29.0104 118.698 28.8061C119.276 28.6018 119.807 28.2803 120.256 27.8617C120.705 27.443 121.063 26.9362 121.308 26.3728C121.553 25.8094 121.679 25.2015 121.679 24.5871C121.679 23.9726 121.553 23.3647 121.308 22.8013C121.063 22.2379 120.705 21.7311 120.256 21.3124C119.807 20.8938 119.276 20.5723 118.698 20.368C118.119 20.1637 117.505 20.081 116.893 20.1251ZM116.893 27.0251H113.896V22.1261H116.939C117.262 22.1261 117.581 22.1897 117.879 22.3134C118.177 22.4371 118.448 22.6183 118.676 22.8469C118.904 23.0754 119.085 23.3467 119.209 23.6453C119.332 23.9439 119.396 24.2639 119.396 24.5871C119.396 24.9102 119.332 25.2303 119.209 25.5288C119.085 25.8274 118.904 26.0987 118.676 26.3272C118.448 26.5558 118.177 26.737 117.879 26.8607C117.581 26.9844 117.262 27.0481 116.939 27.0481L116.893 27.0251ZM130.143 24.9666C129.361 24.9183 128.582 25.1006 127.902 25.491C127.223 25.8814 126.672 26.4627 126.319 27.1631L128.214 27.9566C128.405 27.6109 128.692 27.3281 129.041 27.1424C129.389 26.9567 129.784 26.876 130.177 26.9101C130.45 26.8782 130.726 26.901 130.989 26.9771C131.253 27.0533 131.499 27.1813 131.713 27.3536C131.926 27.526 132.104 27.7392 132.234 27.981C132.365 28.2227 132.446 28.4881 132.473 28.7616V28.8996C131.783 28.5361 131.014 28.3466 130.234 28.3476C128.191 28.3476 126.101 29.4976 126.101 31.5906C126.121 32.0354 126.231 32.4717 126.422 32.8734C126.614 33.2752 126.885 33.6342 127.218 33.9292C127.551 34.2242 127.94 34.4491 128.361 34.5907C128.783 34.7322 129.229 34.7874 129.672 34.7531C130.211 34.7829 130.748 34.6687 131.228 34.4222C131.708 34.1756 132.114 33.8056 132.404 33.3501H132.473V34.5001H134.54V28.9686C134.54 26.4501 132.634 24.9896 130.189 24.9896L130.143 24.9666ZM129.879 32.8441C129.178 32.8441 128.202 32.4876 128.202 31.6251C128.202 30.4751 129.419 30.0841 130.499 30.0841C131.181 30.0672 131.855 30.234 132.45 30.5671C132.378 31.1916 132.083 31.7688 131.618 32.1917C131.154 32.6146 130.552 32.8545 129.924 32.8671L129.879 32.8441ZM142.072 25.3001L139.615 31.5331H139.546L136.997 25.3001H134.701L138.524 34.0171L136.343 38.8586H138.581L144.46 25.3001H142.072ZM122.783 34.5001H124.919V20.1251H122.783V34.5001Z" fill="white"/>
<path d="M11.9867 8.67108C11.6083 9.11914 11.4153 9.69511 11.447 10.2811V35.7191C11.408 36.306 11.6019 36.8847 11.9867 37.3291L12.067 37.4211L26.2926 23.1726V22.8276L12.067 8.59058L11.9867 8.67108Z" fill="url(#paint0_linear_0_1353)"/>
<path d="M31 27.9219L26.2926 23.1724V22.8274L31 18.0779L31.1033 18.1469L36.7407 21.3439C38.3481 22.2524 38.3481 23.7474 36.7407 24.6674L31.1263 27.8644L31 27.9219Z" fill="url(#paint1_linear_0_1353)"/>
<path d="M31.1378 27.8528L26.2926 22.9998L11.9867 37.3288C12.3111 37.618 12.7264 37.7844 13.1605 37.7991C13.5946 37.8138 14.0201 37.6759 14.3633 37.4093L31.1378 27.8528Z" fill="url(#paint2_linear_0_1353)"/>
<path d="M31.1378 18.1467L14.3633 8.6017C14.0224 8.33135 13.5971 8.19006 13.1625 8.20268C12.7278 8.2153 12.3114 8.38102 11.9867 8.6707L26.2926 22.9997L31.1378 18.1467Z" fill="url(#paint3_linear_0_1353)"/>
<path opacity="0.2" d="M31 27.7495L14.3633 37.237C14.0326 37.487 13.6295 37.6223 13.2152 37.6223C12.8008 37.6223 12.3978 37.487 12.067 37.237L11.9867 37.3175L12.067 37.4095C12.3978 37.6595 12.8008 37.7948 13.2152 37.7948C13.6295 37.7948 14.0326 37.6595 14.3633 37.4095L31.1378 27.853L31 27.7495Z" fill="black"/>
<path opacity="0.12" d="M11.9867 37.1679C11.6179 36.7118 11.4371 36.1317 11.4815 35.5464V35.7189C11.4424 36.3058 11.6364 36.8845 12.0211 37.3289L12.1015 37.2484L11.9867 37.1679Z" fill="black"/>
<path opacity="0.12" d="M36.7407 24.4948L31 27.7493L31.1033 27.8528L36.7407 24.6558C37.0735 24.5148 37.3622 24.2866 37.5764 23.9952C37.7905 23.7038 37.9223 23.3599 37.9578 22.9998C37.886 23.327 37.7385 23.6328 37.5271 23.8925C37.3157 24.1521 37.0463 24.3584 36.7407 24.4948Z" fill="black"/>
<path opacity="0.25" d="M14.3633 8.76283L36.7407 21.5048C37.0463 21.6411 37.3157 21.8474 37.5271 22.1071C37.7385 22.3668 37.886 22.6726 37.9578 22.9998C37.9223 22.6397 37.7905 22.2958 37.5764 22.0044C37.3622 21.713 37.0735 21.4848 36.7407 21.3438L14.3633 8.60183C12.7674 7.68183 11.447 8.44083 11.447 10.2808V10.4533C11.4815 8.61333 12.7674 7.85433 14.3633 8.76283Z" fill="white"/>
</g>
<defs>
<linearGradient id="paint0_linear_0_1353" x1="25.0296" y1="10.0166" x2="5.73266" y2="29.2825" gradientUnits="userSpaceOnUse">
<stop stop-color="#00A0FF"/>
<stop offset="0.01" stop-color="#00A1FF"/>
<stop offset="0.26" stop-color="#00BEFF"/>
<stop offset="0.51" stop-color="#00D2FF"/>
<stop offset="0.76" stop-color="#00DFFF"/>
<stop offset="1" stop-color="#00E3FF"/>
</linearGradient>
<linearGradient id="paint1_linear_0_1353" x1="38.8418" y1="22.9999" x2="11.0681" y2="22.9999" gradientUnits="userSpaceOnUse">
<stop stop-color="#FFE000"/>
<stop offset="0.41" stop-color="#FFBD00"/>
<stop offset="0.78" stop-color="#FFA500"/>
<stop offset="1" stop-color="#FF9C00"/>
</linearGradient>
<linearGradient id="paint2_linear_0_1353" x1="28.5085" y1="25.6448" x2="2.33457" y2="51.7651" gradientUnits="userSpaceOnUse">
<stop stop-color="#FF3A44"/>
<stop offset="1" stop-color="#C31162"/>
</linearGradient>
<linearGradient id="paint3_linear_0_1353" x1="8.38149" y1="0.206697" x2="20.0655" y2="11.8719" gradientUnits="userSpaceOnUse">
<stop stop-color="#32A071"/>
<stop offset="0.07" stop-color="#2DA771"/>
<stop offset="0.48" stop-color="#15CF74"/>
<stop offset="0.8" stop-color="#06E775"/>
<stop offset="1" stop-color="#00F076"/>
</linearGradient>
<clipPath id="clip0_0_1353">
<rect width="155" height="46" fill="white"/>
</clipPath>
</defs>
</svg>
