<svg width="49" height="48" viewBox="0 0 49 48" fill="none" xmlns="http://www.w3.org/2000/svg">
<mask id="mask0_0_3558" style="mask-type:alpha" maskUnits="userSpaceOnUse" x="0" y="0" width="49" height="48">
<rect x="0.707031" width="48" height="48" fill="#C4C4C4"/>
</mask>
<g mask="url(#mask0_0_3558)">
<mask id="mask1_0_3558" style="mask-type:alpha" maskUnits="userSpaceOnUse" x="0" y="0" width="49" height="48">
<rect x="0.707031" width="48" height="48" fill="#C4C4C4"/>
</mask>
<g mask="url(#mask1_0_3558)">
<path d="M31.0151 11.1946C29.0802 13.1614 28.0769 15.7838 28.0769 18.4062C28.0769 15.7838 27.0736 13.1614 25.1387 11.1946C21.1973 7.18816 14.891 7.18816 10.9495 11.1946C7.00808 15.201 7.00808 21.6842 10.9495 25.6178L11.0212 25.6906H10.8779L28.0052 43.1004L45.2043 25.5449C49.1457 21.5385 49.1457 15.0554 45.2043 11.1218C41.2628 7.18816 34.9565 7.18816 31.0151 11.1946Z" fill="#11B2A8"/>
<path d="M42.281 7.97489C40.2858 5.9064 37.578 4.83649 34.7276 4.83649C31.8773 4.83649 29.1695 5.97773 27.1743 7.97489C26.1054 9.04481 25.3216 10.3287 24.7515 11.6839C24.2527 10.3287 23.3976 9.04481 22.3287 7.97489C20.3335 5.9064 17.6257 4.83649 14.7754 4.83649C11.9251 4.83649 9.21727 5.97773 7.22204 7.97489C3.16034 12.0406 3.08908 18.674 6.93701 22.8823C6.93701 23.025 7.00827 23.0963 7.15079 23.239L24.1815 40.2862C24.324 40.4289 24.4665 40.5002 24.6803 40.5002C24.894 40.5002 25.0366 40.4289 25.1791 40.2862L42.281 23.1676C46.4852 18.888 46.4852 12.1119 42.281 7.97489ZM41.2834 22.0977L24.6803 38.717L8.50469 22.5257C8.43343 22.383 8.36217 22.2404 8.21966 22.0977C4.5855 18.46 4.5855 12.6112 8.21966 8.97348C10.0011 7.19029 12.2814 6.26304 14.7754 6.26304C17.2694 6.26304 19.5497 7.26162 21.3311 8.97348C23.1126 10.7567 24.0389 13.0391 24.0389 15.5356C24.0389 15.9636 24.324 16.2489 24.7515 16.2489C25.1791 16.2489 25.4641 15.9636 25.4641 15.5356C25.4641 13.0391 26.4617 10.6853 28.1719 8.97348C29.9534 7.19029 32.2336 6.26304 34.7276 6.26304C37.2217 6.26304 39.5019 7.26162 41.2834 8.97348C44.9175 12.5399 44.9175 18.46 41.2834 22.0977Z" fill="#212A34"/>
<path d="M24.6802 38.717L41.2834 22.0978C44.9175 18.4601 44.9175 12.5399 41.2834 8.9735C39.5019 7.26165 37.2217 6.26306 34.7276 6.26306C32.2336 6.26306 29.9533 7.19032 28.1719 8.9735C26.4617 10.6854 25.4641 13.0392 25.4641 15.5356C25.4641 15.9636 25.179 16.2489 24.7515 16.2489C24.3239 16.2489 24.0389 15.9636 24.0389 15.5356C24.0389 13.0392 23.1126 10.7567 21.3311 8.9735C19.5497 7.26165 17.2694 6.26306 14.7754 6.26306C12.2813 6.26306 10.0011 7.19032 8.21964 8.9735C4.58548 12.6112 4.58548 18.4601 8.21964 22.0978C8.36215 22.2404 8.43341 22.3831 8.50467 22.5257L24.6802 38.717Z" fill="white"/>
<path d="M14.7753 7.68964C10.4286 7.68964 6.93695 11.1847 6.93695 15.5357C6.93695 15.9636 7.22198 16.2489 7.64953 16.2489C8.07708 16.2489 8.36211 15.9636 8.36211 15.5357C8.36211 11.9693 11.2124 9.11619 14.7753 9.11619C15.2029 9.11619 15.4879 8.83088 15.4879 8.40291C15.4879 7.97495 15.2029 7.68964 14.7753 7.68964Z" fill="#212A34"/>
<path d="M29.9534 25.0221L24.2527 30.7283C23.9677 31.0137 23.9677 31.4416 24.2527 31.7269C24.3952 31.8696 24.609 31.9409 24.7515 31.9409C24.894 31.9409 25.1078 31.8696 25.2503 31.7269L30.951 26.0207C31.236 25.7354 31.236 25.3075 30.951 25.0221C30.6659 24.7368 30.2384 24.7368 29.9534 25.0221Z" fill="#212A34"/>
<path d="M24.7515 29.0878C24.9653 29.0878 25.1078 29.0165 25.2503 28.8738L28.1006 26.0207C28.3857 25.7354 28.3857 25.3075 28.1006 25.0221C27.8156 24.7368 27.3881 24.7368 27.103 25.0221L24.2527 27.8752C23.9677 28.1606 23.9677 28.5885 24.2527 28.8738C24.3952 29.0165 24.5377 29.0878 24.7515 29.0878Z" fill="#212A34"/>
<path d="M29.9535 27.8753L27.1031 30.7284C26.8181 31.0137 26.8181 31.4417 27.1031 31.727C27.2457 31.8696 27.4594 31.941 27.602 31.941C27.7445 31.941 27.9582 31.8696 28.1008 31.727L30.9511 28.8739C31.2361 28.5886 31.2361 28.1606 30.9511 27.8753C30.666 27.59 30.2385 27.59 29.9535 27.8753Z" fill="#212A34"/>
<path d="M34.7277 7.76093C34.3001 7.76093 34.0151 8.04624 34.0151 8.4742C34.0151 8.90216 34.3001 9.18747 34.7277 9.18747C38.2193 9.18747 41.0696 12.0406 41.0696 15.5356C41.0696 15.9636 41.3547 16.2489 41.7822 16.2489C42.2098 16.2489 42.4948 15.9636 42.4948 15.5356C42.4948 11.256 39.0032 7.76093 34.7277 7.76093Z" fill="#212A34"/>
</g>
</g>
</svg>
