<svg width="80" height="80" viewBox="0 0 80 80" fill="none" xmlns="http://www.w3.org/2000/svg">
<path d="M70.0001 64.7825C70.0001 66.1663 69.4504 67.4933 68.4719 68.4718C67.4935 69.4502 66.1664 69.9999 64.7827 69.9999H15.2175C13.8338 69.9999 12.5067 69.4502 11.5282 68.4718C10.5498 67.4933 10.0001 66.1663 10.0001 64.7825V23.0435H70.0001V64.7825Z" fill="#F0FFFF"/>
<path d="M14.0462 69.8669L60.8696 23.0435H10.0001V64.7825C10.0001 65.9627 10.4002 67.108 11.135 68.0315C11.8699 68.9549 12.8961 69.6019 14.0462 69.8669Z" fill="#F0FFFF"/>
<path d="M70.0001 15.2174C70.0001 13.8337 69.4504 12.5066 68.4719 11.5281C67.4935 10.5497 66.1664 10 64.7827 10H15.2175C13.8338 10 12.5067 10.5497 11.5282 11.5281C10.5498 12.5066 10.0001 13.8337 10.0001 15.2174V23.0435H70.0001V15.2174Z" fill="white"/>
<path d="M33.4783 70H15.2175C13.8338 70 12.5067 69.4503 11.5282 68.4718C10.5498 67.4934 10.0001 66.1663 10.0001 64.7826V15.2174C10.0001 13.8337 10.5498 12.5066 11.5282 11.5281C12.5067 10.5497 13.8338 10 15.2175 10H64.7827C66.1664 10 67.4935 10.5497 68.4719 11.5281C69.4504 12.5066 70.0001 13.8337 70.0001 15.2174V49.1304" stroke="#212A34" stroke-linecap="round" stroke-linejoin="round"/>
<path d="M34.7827 30.8669H19.1305C18.4102 30.8669 17.8262 31.4509 17.8262 32.1713V50.4321C17.8262 51.1525 18.4102 51.7365 19.1305 51.7365H34.7827C35.5031 51.7365 36.087 51.1525 36.087 50.4321V32.1713C36.087 31.4509 35.5031 30.8669 34.7827 30.8669Z" fill="white" stroke="#212A34" stroke-linecap="round" stroke-linejoin="round"/>
<path d="M26.9567 43.9103C29.1178 43.9103 30.8697 42.1584 30.8697 39.9973C30.8697 37.8362 29.1178 36.0842 26.9567 36.0842C24.7956 36.0842 23.0436 37.8362 23.0436 39.9973C23.0436 42.1584 24.7956 43.9103 26.9567 43.9103Z" fill="#11B2A8" stroke="#212A34" stroke-linecap="round" stroke-linejoin="round"/>
<path d="M33.4784 51.7392H20.4349C20.2778 49.8399 20.8735 47.9549 22.0935 46.4909C23.3135 45.0268 25.0602 44.101 26.9567 43.9131C28.8531 44.101 30.5998 45.0268 31.8198 46.4909C33.0398 47.9549 33.6355 49.8399 33.4784 51.7392Z" fill="#F0FFFF" stroke="#212A34" stroke-linecap="round" stroke-linejoin="round"/>
<path d="M19.1305 15.8669C19.2593 15.8669 19.3853 15.9051 19.4925 15.9767C19.5997 16.0482 19.6833 16.1499 19.7327 16.2689C19.7822 16.388 19.7953 16.519 19.7703 16.6454C19.7453 16.7718 19.6835 16.888 19.5925 16.9794C19.5016 17.0707 19.3856 17.133 19.2593 17.1584C19.133 17.1839 19.0019 17.1714 18.8827 17.1224C18.7635 17.0734 18.6615 16.9902 18.5895 16.8833C18.5175 16.7764 18.4788 16.6506 18.4783 16.5217C18.478 16.4359 18.4946 16.3508 18.5272 16.2713C18.5598 16.1919 18.6078 16.1197 18.6684 16.0589C18.729 15.998 18.801 15.9498 18.8803 15.9168C18.9596 15.8839 19.0446 15.8669 19.1305 15.8669" stroke="#212A34" stroke-linecap="round" stroke-linejoin="round"/>
<path d="M26.9566 15.8669C27.0854 15.8669 27.2114 15.9051 27.3186 15.9767C27.4258 16.0482 27.5094 16.1499 27.5588 16.2689C27.6083 16.388 27.6213 16.519 27.5964 16.6454C27.5714 16.7718 27.5096 16.888 27.4186 16.9794C27.3277 17.0707 27.2117 17.133 27.0854 17.1584C26.959 17.1839 26.828 17.1714 26.7088 17.1224C26.5896 17.0734 26.4875 16.9902 26.4156 16.8833C26.3436 16.7764 26.3049 16.6506 26.3044 16.5217C26.304 16.4359 26.3207 16.3508 26.3533 16.2713C26.3859 16.1919 26.4339 16.1197 26.4945 16.0589C26.5551 15.998 26.6271 15.9498 26.7064 15.9168C26.7857 15.8839 26.8707 15.8669 26.9566 15.8669" stroke="#212A34" stroke-linecap="round" stroke-linejoin="round"/>
<path d="M34.7826 15.8669C34.9115 15.8669 35.0375 15.9051 35.1447 15.9767C35.2519 16.0482 35.3355 16.1499 35.3849 16.2689C35.4343 16.388 35.4474 16.519 35.4225 16.6454C35.3975 16.7718 35.3356 16.888 35.2447 16.9794C35.1538 17.0707 35.0378 17.133 34.9115 17.1584C34.7851 17.1839 34.6541 17.1714 34.5349 17.1224C34.4156 17.0734 34.3136 16.9902 34.2416 16.8833C34.1697 16.7764 34.131 16.6506 34.1305 16.5217C34.1305 16.3488 34.1992 16.1829 34.3215 16.0606C34.4438 15.9383 34.6097 15.8696 34.7826 15.8696" stroke="#212A34" stroke-linecap="round" stroke-linejoin="round"/>
<path d="M67.3913 69.9999V63.0425C67.3906 60.7367 66.4743 58.5256 64.8439 56.8951C63.2134 55.2647 61.0023 54.3484 58.6965 54.3477H54.3478V42.6086C54.3478 41.5708 53.9356 40.5755 53.2017 39.8417C52.4679 39.1078 51.4726 38.6956 50.4348 38.6956C49.397 38.6956 48.4017 39.1078 47.6678 39.8417C46.934 40.5755 46.5217 41.5708 46.5217 42.6086V60.8695L43.1591 58.0521C42.6056 57.3872 41.8107 56.9694 40.9492 56.8906C40.0876 56.8119 39.2301 57.0786 38.5652 57.6321C37.9003 58.1856 37.4826 58.9805 37.4038 59.842C37.325 60.7036 37.5917 61.5611 38.1452 62.226L44.6122 69.9999" fill="#F0FFFF"/>
<path d="M67.3913 69.9999V63.0425C67.3906 60.7367 66.4743 58.5256 64.8439 56.8951C63.2134 55.2647 61.0023 54.3484 58.6965 54.3477H54.3478V42.6086C54.3478 41.5708 53.9356 40.5755 53.2017 39.8417C52.4679 39.1078 51.4726 38.6956 50.4348 38.6956C49.397 38.6956 48.4017 39.1078 47.6678 39.8417C46.934 40.5755 46.5217 41.5708 46.5217 42.6086V60.8695L43.1591 58.0521C42.6056 57.3872 41.8107 56.9694 40.9492 56.8906C40.0876 56.8119 39.2301 57.0786 38.5652 57.6321C37.9003 58.1856 37.4826 58.9805 37.4038 59.842C37.325 60.7036 37.5917 61.5611 38.1452 62.226L44.6122 69.9999" stroke="#212A34" stroke-linecap="round" stroke-linejoin="round"/>
</svg>
