<svg width="23" height="18" viewBox="0 0 23 18" fill="none" xmlns="http://www.w3.org/2000/svg">
<path fill-rule="evenodd" clip-rule="evenodd" d="M21.7588 9C21.7588 4.80699 18.4965 1.47363 14.5517 1.47363C10.9976 1.47363 7.99739 4.17956 7.4381 7.78217H6.42773C6.99655 3.65007 10.4171 0.473633 14.5517 0.473633C19.0844 0.473633 22.7588 4.29102 22.7588 9C22.7588 13.709 19.0844 17.5264 14.5517 17.5264C10.4172 17.5264 6.99678 14.3502 6.42779 10.2183H7.43817C7.99763 13.8207 10.9977 16.5264 14.5517 16.5264C18.4965 16.5264 21.7588 13.193 21.7588 9Z" fill="#282C3F"/>
<path d="M13.952 11.4375L16.2969 9.00141L13.952 6.56532" stroke="#00357C" stroke-linecap="round" stroke-linejoin="round"/>
<path d="M16.0074 9.00195H0.765625" stroke="#00357C" stroke-linecap="round" stroke-linejoin="round"/>
</svg>
