<svg width="24" height="24" viewBox="0 0 24 24" fill="none" xmlns="http://www.w3.org/2000/svg">
<g clip-path="url(#clip0_0_1357)">
<path d="M24 4.575C23.1 4.95 22.2001 5.25 21.15 5.325C22.2001 4.725 22.9501 3.75 23.3251 2.625C22.35 3.225 21.3 3.6 20.175 3.825C19.275 2.85 18 2.25 16.65 2.25C13.95 2.25 11.7 4.425 11.7 7.2C11.7 7.575 11.775 7.95 11.85 8.325C7.72505 8.1 4.12505 6.15 1.65005 3.15C1.20005 3.9 0.975049 4.725 0.975049 5.625C0.975049 7.35 1.87505 8.85 3.15005 9.75C2.32505 9.75 1.57505 9.525 0.900049 9.15V9.225C0.900049 11.625 2.62505 13.575 4.87505 14.025C4.42505 14.1 4.05005 14.175 3.60005 14.175C3.30005 14.175 3.00005 14.175 2.70005 14.1C3.30005 16.05 5.17505 17.475 7.27505 17.55C5.62505 18.9 3.45005 19.65 1.12505 19.65C0.750049 19.65 0.300049 19.65 -0.0749512 19.575C2.17505 20.925 4.80005 21.75 7.57505 21.75C16.65 21.75 21.6 14.25 21.6 7.725C21.6 7.5 21.6 7.275 21.6 7.125C22.5 6.375 23.325 5.55 24 4.575Z" fill="#555770"/>
</g>
<defs>
<clipPath id="clip0_0_1357">
<rect width="24" height="24" fill="white"/>
</clipPath>
</defs>
</svg>
